<svg width="37" height="24" viewBox="0 0 37 24" fill="none" xmlns="http://www.w3.org/2000/svg">
<path d="M11.088 0.963379C12.1259 0.963379 13.0858 1.0442 13.9629 1.28344C14.8416 1.44347 15.5611 1.76353 16.1995 2.1628C16.8394 2.56368 17.3185 3.12298 17.6369 3.84231C17.9569 4.56164 18.1177 5.44261 18.1177 6.40118C18.1177 7.52139 17.8773 8.47996 17.3185 9.19929C16.8394 9.92023 16.0403 10.5587 15.082 11.0388C16.4398 11.4397 17.4777 12.159 18.1177 13.1192C18.756 14.0778 19.1555 15.2772 19.1555 16.6367C19.1555 17.7569 18.9152 18.7154 18.5156 19.5156C18.1177 20.3157 17.4777 21.0351 16.7582 21.5152C15.9766 22.0297 15.1126 22.408 14.2033 22.6338C13.245 22.8746 12.2867 23.0346 11.3284 23.0346H0.623169V0.963379H11.088ZM10.4481 9.91862C11.3268 9.91862 12.0463 9.67938 12.6051 9.28011C13.1638 8.88084 13.4042 8.1599 13.4042 7.28054C13.4042 6.80045 13.323 6.32197 13.1638 6.00191C13.0046 5.68185 12.7642 5.441 12.4459 5.20176C12.1259 5.04173 11.8059 4.8817 11.4064 4.80249C11.0068 4.72167 10.6089 4.72167 10.1281 4.72167H5.49583V9.92023H10.4497L10.4481 9.91862ZM10.6885 19.3556C11.1676 19.3556 11.6468 19.2747 12.0463 19.1955C12.4459 19.1147 12.8454 18.9563 13.1638 18.7154C13.4893 18.4814 13.7615 18.1818 13.9629 17.8361C14.1221 17.4368 14.2829 16.9567 14.2829 16.3974C14.2829 15.2772 13.9629 14.4771 13.3246 13.9178C12.6846 13.4377 11.8059 13.1984 10.7681 13.1984H5.49583V19.3572L10.6885 19.3556ZM26.1056 19.2747C26.7439 19.9149 27.7022 20.2349 28.9805 20.2349C29.8592 20.2349 30.6583 19.9957 31.2966 19.5964C31.9365 19.1163 32.3361 18.6362 32.4953 18.1578H36.4096C35.7697 20.0749 34.8114 21.4343 33.5348 22.3153C32.2549 23.1139 30.7379 23.5939 28.9009 23.5939C27.7255 23.5976 26.5601 23.3804 25.4656 22.9538C24.4808 22.5863 23.6026 21.9821 22.9091 21.1951C22.1673 20.4589 21.619 19.5524 21.3125 18.5554C20.9129 17.516 20.7521 16.3974 20.7521 15.1172C20.7521 13.9178 20.9129 12.7992 21.3125 11.7582C21.6973 10.7565 22.2663 9.83505 22.9903 9.04088C23.7198 8.29543 24.5874 7.69765 25.5452 7.28054C26.6119 6.85389 27.7513 6.63653 28.9009 6.64042C30.2587 6.64042 31.4574 6.88127 32.4953 7.44057C33.5348 7.99987 34.3323 8.63999 34.9706 9.60017C35.6105 10.4795 36.0913 11.5189 36.4096 12.6391C36.5688 13.7577 36.6484 14.8779 36.5688 16.1566H24.9865C24.9865 17.4368 25.4656 18.6362 26.1056 19.2764V19.2747ZM31.1374 10.8788C30.5787 10.3195 29.7 9.99944 28.6605 9.99944C27.9426 9.99944 27.3822 10.1611 26.9031 10.4003C26.4239 10.6396 26.1056 10.9596 25.7856 11.2797C25.4911 11.5887 25.2959 11.9782 25.2253 12.3983C25.1457 12.7992 25.0661 13.1192 25.0661 13.4377H32.2549C32.0957 12.2383 31.6962 11.4397 31.1374 10.8788ZM24.1078 2.48286H33.054V4.64246H24.1094V2.48286H24.1078Z" fill="black"/>
</svg>
