<svg width="33" height="33" viewBox="0 0 33 33" fill="none" xmlns="http://www.w3.org/2000/svg">
<mask id="mask0_62_8" style="mask-type:luminance" maskUnits="userSpaceOnUse" x="0" y="0" width="33" height="33">
<path d="M32.944 0.944L0.94397 0.944L0.94397 32.944H32.944V0.944Z" fill="white"/>
</mask>
<g mask="url(#mask0_62_8)">
<path fill-rule="evenodd" clip-rule="evenodd" d="M18.9516 14.9363C20.4174 14.3091 22.5588 13.9137 24.944 13.9137C29.3622 13.9137 32.944 15.2704 32.944 16.944C32.944 18.6176 29.3622 19.9742 24.944 19.9742C22.5588 19.9742 20.4174 19.5789 18.9516 18.9517C19.5788 20.4174 19.9742 22.5589 19.9742 24.944C19.9742 29.3622 18.6176 32.944 16.944 32.944C15.2704 32.944 13.9137 29.3622 13.9137 24.944C13.9137 22.5589 14.3091 20.4174 14.9363 18.9517C13.4706 19.5789 11.3292 19.9742 8.94397 19.9742C4.5257 19.9742 0.94397 18.6176 0.94397 16.944C0.94397 15.2704 4.5257 13.9137 8.94397 13.9137C11.3292 13.9137 13.4706 14.3091 14.9363 14.9363C14.3091 13.4706 13.9137 11.3292 13.9137 8.944C13.9137 4.52573 15.2704 0.944 16.944 0.944C18.6176 0.944 19.9742 4.52573 19.9742 8.944C19.9742 11.3292 19.5788 13.4706 18.9516 14.9363Z" fill="black"/>
</g>
</svg>
