<svg width="46" height="46" viewBox="0 0 46 46" fill="none" xmlns="http://www.w3.org/2000/svg">
<mask id="mask0_62_61" style="mask-type:luminance" maskUnits="userSpaceOnUse" x="0" y="0" width="46" height="46">
<path d="M45.5713 22.944L22.9438 0.316589L0.316431 22.944L22.9438 45.5714L45.5713 22.944Z" fill="white"/>
</mask>
<g mask="url(#mask0_62_61)">
<path fill-rule="evenodd" clip-rule="evenodd" d="M25.7832 22.944C27.2631 23.5369 29.0569 24.7716 30.7435 26.4581C33.8676 29.5823 35.441 33.0743 34.2576 34.2577C33.0741 35.4411 29.5822 33.8677 26.458 30.7436C24.7715 29.057 23.5368 27.2632 22.9438 25.7833C22.3509 27.2632 21.1162 29.057 19.4297 30.7436C16.3055 33.8677 12.8136 35.4411 11.6301 34.2577C10.4467 33.0743 12.0201 29.5823 15.1442 26.4581C16.8308 24.7716 18.6246 23.5369 20.1045 22.944C18.6246 22.3511 16.8309 21.1164 15.1443 19.4299C12.0201 16.3057 10.4467 12.8137 11.6301 11.6303C12.8135 10.4469 16.3056 12.0202 19.4297 15.1444C21.1163 16.831 22.3509 18.6248 22.9438 20.1047C23.5368 18.6248 24.7714 16.831 26.458 15.1444C29.5821 12.0202 33.0742 10.4469 34.2576 11.6303C35.441 12.8137 33.8676 16.3057 30.7434 19.4299C29.0568 21.1164 27.2631 22.3511 25.7832 22.944Z" fill="black"/>
</g>
</svg>
