<svg width="124" height="124" viewBox="0 0 124 124" fill="none" xmlns="http://www.w3.org/2000/svg">
<mask id="mask0_4_65" style="mask-type:luminance" maskUnits="userSpaceOnUse" x="0" y="0" width="124" height="124">
<path d="M124 62L62 -6.10352e-05L-3.34498e-05 62L62 124L124 62Z" fill="white"/>
</mask>
<g mask="url(#mask0_4_65)">
<path fill-rule="evenodd" clip-rule="evenodd" d="M69.7798 61.9999C73.8349 63.6246 78.7501 67.0076 83.3712 71.6288C91.9316 80.1891 96.2426 89.7574 93 93C89.7574 96.2426 80.1893 91.9314 71.6289 83.3711C67.0077 78.7499 63.6247 73.8348 62 69.7797C60.3753 73.8348 56.9923 78.7499 52.3711 83.3711C43.8107 91.9314 34.2426 96.2426 31 93C27.7574 89.7574 32.0684 80.1891 40.6288 71.6288C45.2499 67.0076 50.1651 63.6246 54.2202 61.9999C50.1652 60.3753 45.2502 56.9924 40.6289 52.3711C32.0685 43.8106 27.7574 34.2426 31 31C34.2426 27.7574 43.8108 32.0683 52.3712 40.6287C56.9925 45.2501 60.3754 50.1651 62 54.2201C63.6246 50.1651 67.0075 45.2501 71.6288 40.6287C80.1892 32.0683 89.7574 27.7574 93 31C96.2426 34.2426 91.9315 43.8106 83.3711 52.3711C78.7498 56.9924 73.8348 60.3753 69.7798 61.9999Z" fill="#E8FF5C"/>
</g>
</svg>
