<svg width="37" height="35" viewBox="0 0 37 35" fill="none" xmlns="http://www.w3.org/2000/svg">
<path d="M18.8184 0C16.4561 0 14.117 0.461454 11.9345 1.35802C9.75206 2.25458 7.76903 3.56869 6.09865 5.22532C2.72516 8.57103 0.829956 13.1088 0.829956 17.8404C0.829956 25.7258 5.99264 32.4159 13.134 34.7887C14.0335 34.9314 14.3213 34.3784 14.3213 33.8967V30.8817C9.33849 31.9521 8.27717 28.491 8.27717 28.491C7.4497 26.4216 6.28045 25.8685 6.28045 25.8685C4.6435 24.7624 6.40637 24.7981 6.40637 24.7981C8.20521 24.923 9.1586 26.6357 9.1586 26.6357C10.7236 29.3474 13.3679 28.5446 14.3932 28.1164C14.5551 26.9568 15.0228 26.1718 15.5265 25.7258C11.5331 25.2798 7.34177 23.7455 7.34177 16.9483C7.34177 14.9681 8.02533 13.3803 9.19458 12.1136C9.0147 11.6676 8.3851 9.81219 9.37446 7.40375C9.37446 7.40375 10.8855 6.92206 14.3213 9.22346C15.7424 8.83098 17.2894 8.63473 18.8184 8.63473C20.3474 8.63473 21.8944 8.83098 23.3155 9.22346C26.7513 6.92206 28.2623 7.40375 28.2623 7.40375C29.2517 9.81219 28.6221 11.6676 28.4422 12.1136C29.6115 13.3803 30.295 14.9681 30.295 16.9483C30.295 23.7634 26.0857 25.2619 22.0743 25.708C22.7219 26.261 23.3155 27.3493 23.3155 29.0084V33.8967C23.3155 34.3784 23.6033 34.9493 24.5207 34.7887C31.6621 32.3981 36.8068 25.7258 36.8068 17.8404C36.8068 15.4975 36.3415 13.1776 35.4375 11.0131C34.5335 8.84865 33.2085 6.88195 31.5381 5.22532C29.8678 3.56869 27.8847 2.25458 25.7023 1.35802C23.5198 0.461454 21.1807 0 18.8184 0Z" fill="black"/>
</svg>
