<svg width="30" height="29" viewBox="0 0 30 29" fill="none" xmlns="http://www.w3.org/2000/svg">
<path d="M0 2.51798C0 1.39309 0.953822 0.481445 2.13069 0.481445H26.8829C28.0598 0.481445 29.0136 1.39309 29.0136 2.51798V26.8782C29.0136 28.0031 28.0598 28.9148 26.8829 28.9148H2.13069C0.953822 28.9148 0 28.0031 0 26.8782V2.51798ZM8.96339 24.2837V11.4443H4.60954V24.2837H8.96339ZM6.78737 9.69029C8.30515 9.69029 9.2499 8.70579 9.2499 7.47249C9.2227 6.21254 8.30696 5.25469 6.81638 5.25469C5.32581 5.25469 4.35204 6.21432 4.35204 7.47249C4.35204 8.70579 5.2968 9.69029 6.75836 9.69029H6.78737ZM15.6873 24.2837V17.1132C15.6873 16.7293 15.7163 16.3455 15.8324 16.0718C16.1461 15.3059 16.8623 14.5115 18.0664 14.5115C19.6422 14.5115 20.2714 15.6879 20.2714 17.4153V24.2837H24.6253V16.9195C24.6253 12.9743 22.4783 11.1404 19.6132 11.1404C17.303 11.1404 16.2676 12.3843 15.6873 13.2605V13.3049H15.6583C15.6679 13.29 15.6776 13.2752 15.6873 13.2605V11.4443H11.3353C11.3897 12.6491 11.3353 24.2837 11.3353 24.2837H15.6873Z" fill="black"/>
</svg>
